<svg width="194mm" height="270mm" version="1.1" viewBox="0 0 194 270" xmlns="http://www.w3.org/2000/svg">
 <defs>
  <clipPath id="clipPath11168">
   <path d="m287.22 242.48h135.4v-15.325h-135.4z"/>
  </clipPath>
  <clipPath id="clipPath11252">
   <path d="m326.93 367.47h27.965v-27.717h-27.965z"/>
  </clipPath>
 </defs>
 <g transform="matrix(3 0 0 3 -74.432 -16.363)">
  <g transform="matrix(.35278 0 0 -.35278 61.241 6.5091)">
   <path d="m0 0c-3.445 0.111-1.7-1.757 0 0" fill="#fff" fill-rule="evenodd"/>
  </g>
  <g transform="matrix(.35278 0 0 -.35278 53.121 9.2929)">
   <path d="M 0,0 C 0.791,-0.048 1.551,-0.058 1.599,0.704 1.12,1.241 -0.223,1.2 0,0" fill="#fff" fill-rule="evenodd"/>
  </g>
  <g transform="matrix(.35278 0 0 -.35278 45.227 18.841)">
   <path d="M 0,0 C 0.815,0.038 1.643,0.064 1.597,1.026 0.683,1.086 -0.146,1.065 0,0" fill="#fff" fill-rule="evenodd"/>
  </g>
  <g transform="matrix(.35278 0 0 -.35278 48.61 30.334)">
   <path d="m0 0c0.242 1.214-0.838 1.552-1.282 1.048-0.097-0.906 0.444-1.144 1.282-1.048" fill="#fff" fill-rule="evenodd"/>
  </g>
  <g transform="matrix(.35278 0 0 -.35278 50.526 32.149)">
   <path d="m0 0c-0.085 0.717-0.855 0.701-1.275 1.051 0.189-0.731-0.397-2.261 0.315-2.396-0.092 0.898 1.243 0.249 0.96 1.345" fill="#fff" fill-rule="evenodd"/>
  </g>
  <g transform="matrix(.35278 0 0 -.35278 49.174 33.479)">
   <path d="M 0,0 C 0.049,0.853 -0.167,1.447 -0.641,1.725 -1.327,1.032 -0.807,0.108 0,0" fill="#fff" fill-rule="evenodd"/>
  </g>
  <g transform="matrix(.35278 0 0 -.35278 49.738 34.078)">
   <path d="m0 0c0.087 0.897-0.118 1.472-0.96 1.375-0.092-0.899 0.113-1.471 0.96-1.375" fill="#fff" fill-rule="evenodd"/>
  </g>
  <g transform="matrix(.35278 0 0 -.35278 67.33 40.129)">
   <path d="M 0,0 C 0.599,0.494 2.117,0.014 2.559,0.699 1.794,1.401 0.241,0.893 0,0" fill="#fff" fill-rule="evenodd"/>
  </g>
  <g transform="matrix(.35278 0 0 -.35278 30.453 40.243)">
   <path d="m0 0c-0.98 0.239-0.94-0.614-1.918-0.352 0-1.864 1.977-0.793 1.918 0.352" fill="#fff" fill-rule="evenodd"/>
  </g>
  <g transform="matrix(.35278 0 0 -.35278 44.663 55.367)">
   <path d="m0 0c0.115 1.5-0.799 1.359-1.597 1.023-0.15-1.066 0.682-1.088 1.597-1.023" fill="#fff" fill-rule="evenodd"/>
  </g>
  <g transform="matrix(.35278 0 0 -.35278 60.902 60.441)">
   <path d="M 0,0 C -0.254,-1.356 1.851,-1.871 2.559,-1.021 1.6,-0.809 1.443,0.267 0,0" fill="#fff" fill-rule="evenodd"/>
  </g>
  <g transform="matrix(.35278 0 0 -.35278 57.294 62.266)">
   <path d="m0 0c0.872 0.027 0.641-0.531 1.276 0 0.251 1.357-1.529 1.357-1.276 0" fill="#fff" fill-rule="evenodd"/>
  </g>
  <g transform="matrix(.35278 0 0 -.35278 45.451 62.131)">
   <path d="m0 0c-0.61-0.666 0.21-1.544 1.28-1.406-0.136 0.777-0.569 1.266-1.28 1.406" fill="#fff" fill-rule="evenodd"/>
  </g>
  <g transform="matrix(.35278 0 0 -.35278 60.338 54.399)">
   <path d="m0 0c-0.315 0.361-1.374 1.702-1.916 0.702 0.602-0.067 1.66-1.407 1.916-0.702" fill="#fff" fill-rule="evenodd"/>
  </g>
  <g transform="matrix(.35278 0 0 -.35278 40.098 92.368)">
   <path d="M 0,0 C 1.114,1.664 -1.108,2.32 -2.879,2.055 -2.373,0.514 -0.572,1.792 0,0" fill="#fff" fill-rule="evenodd"/>
  </g>
  <g transform="matrix(.35278 0 0 -.35278 59.495 74.107)">
   <path d="m0 0c-0.267 1.395-2.048 1.212-3.197 1.663-0.239-1.867 2.59-1.845 3.197-1.663" fill="#fff" fill-rule="evenodd"/>
  </g>
  <g transform="matrix(.35278 0 0 -.35278 78.782 70.252)">
   <path d="m0 0c-0.561 0.02-0.999-0.07-1.284-0.323-0.051-0.865 0.493-1.067 0.962-1.404 0.264 0.435 0.419 0.921 0.322 1.727" fill="#fff" fill-rule="evenodd"/>
  </g>
  <g transform="matrix(.35278 0 0 -.35278 46.752 67.954)">
   <path d="M 0,0 C 0.939,0.024 1.185,0.798 1.602,1.41 0.507,1.542 -0.223,1.31 0,0" fill="#fff" fill-rule="evenodd"/>
  </g>
  <g transform="matrix(.35278 0 0 -.35278 84.193 67.706)">
   <path d="m0 0c0.067 0.387 0.355 0.199 0.64 0 0.258 1.774-0.726 2.171-0.958 3.45-0.953-0.484-1.623-0.389-2.234 0.322-0.459-1.652 1.333-0.859 0.956-2.427 1.618 0.301 0.169-1.099 1.596-1.345" fill="#fff" fill-rule="evenodd"/>
  </g>
  <g transform="matrix(.35278 0 0 -.35278 83.067 64.571)">
   <path d="m0 0c1.198 1.531-1.977 3.515-1.918 1.082 1.396 0.439 0.676-1.368 1.918-1.082" fill="#fff" fill-rule="evenodd"/>
  </g>
  <g transform="matrix(.35278 0 0 -.35278 57.015 62.747)">
   <path d="m0 0c-0.059-0.86 0.719-0.838 0.958-1.405 0.138 0.671 0.689 0.871 0.641 1.728-0.773 0.13-0.694-0.588-1.599-0.323" fill="#fff" fill-rule="evenodd"/>
  </g>
  <g transform="matrix(.35278 0 0 -.35278 66.489 49.571)">
   <path d="m0 0c0.998-0.149 1.422 0.313 1.277 1.374-1 0.18-1.426-0.275-1.277-1.374" fill="#fff" fill-rule="evenodd"/>
  </g>
  <g transform="matrix(.35278 0 0 -.35278 46.413 42.065)">
   <path d="m0 0c-0.182-0.728-0.791-0.997-0.638-2.073h0.956v1.023h1.282c0.12 1.061-1.038 0.723-1.6 1.05" fill="#fff" fill-rule="evenodd"/>
  </g>
  <g transform="matrix(.35278 0 0 -.35278 51.375 14.981)">
   <path d="M 0,0 C -1.094,0.592 -1.981,-1.483 -0.637,-1.372 -0.873,-0.437 0,-0.667 0,0" fill="#fff" fill-rule="evenodd"/>
  </g>
  <g transform="matrix(.35278 0 0 -.35278 54.195 9.301)">
   <path d="m0 0c-0.435-1.264 1.471-1.782 1.917-1.017-1.234-0.284-1.138 0.84-1.917 1.017" fill="#fff" fill-rule="evenodd"/>
  </g>
  <g transform="matrix(.35278 0 0 -.35278 56.195 82.583)">
   <path d="m0 0c-0.051 0.763-0.807 0.749-1.595 0.704-0.228-1.181 1.117-1.274 1.595-0.704" fill="#fff" fill-rule="evenodd"/>
  </g>
  <g transform="matrix(.35278 0 0 -.35278 48.752 79.925)">
   <path d="m0 0c0.535 1.648-1.839 1.893-1.598 0.327 0.369-0.271 0.857-0.423 1.598-0.327" fill="#fff" fill-rule="evenodd"/>
  </g>
  <g transform="matrix(.35278 0 0 -.35278 43.902 76.768)">
   <path d="m0 0c-0.629 0.959-2.052-1.807-0.316-1.722-0.173 0.881-0.427 1.178 0.316 1.722" fill="#fff" fill-rule="evenodd"/>
  </g>
  <g transform="matrix(.35278 0 0 -.35278 48.301 73.14)">
   <path d="m0 0c0.047 0.964-0.783 0.989-1.601 1.026-0.146-1.125 0.688-1.15 1.601-1.026" fill="#fff" fill-rule="evenodd"/>
  </g>
  <g transform="matrix(.35278 0 0 -.35278 51.119 61.305)">
   <path d="m0 0c-0.833 0.091-1.371-0.112-1.275-1.02 0.442-0.471 1.522-0.164 1.275 1.02" fill="#fff" fill-rule="evenodd"/>
  </g>
  <g transform="matrix(.35278 0 0 -.35278 52.586 59.839)">
   <path d="M 0,0 C 0.424,0.317 1.189,0.301 1.279,1.021 1.558,2.112 0.225,1.462 0.32,2.365 -0.398,2.225 0.188,0.663 0,0" fill="#fff" fill-rule="evenodd"/>
  </g>
  <g transform="matrix(.35278 0 0 -.35278 51.459 58.758)">
   <path d="M 0,0 C 0.471,0.272 0.683,0.867 0.636,1.726 -0.169,1.646 -0.688,0.722 0,0" fill="#fff" fill-rule="evenodd"/>
  </g>
  <g transform="matrix(.35278 0 0 -.35278 51.909 58.035)">
   <path d="M 0,0 C 0.844,-0.098 1.047,0.508 0.959,1.405 0.114,1.5 -0.088,0.901 0,0" fill="#fff" fill-rule="evenodd"/>
  </g>
  <g transform="matrix(.35278 0 0 -.35278 44.353 54.766)">
   <path d="m0 0c-0.038 0.769-1.355 0.133-1.919 0.315 7e-3 -0.935 1.509-0.82 1.919-0.315" fill="#fff" fill-rule="evenodd"/>
  </g>
  <g transform="matrix(.35278 0 0 -.35278 37.473 53.685)">
   <path d="m0 0c0.121 0.608-0.248 0.664-0.635 0.7-0.27 0.247-0.066 1.644-1.6 1.343 0.038-0.57-0.392-0.675-0.321-1.343 1.459 0.392 1.252-0.935 2.556-0.7" fill="#fff" fill-rule="evenodd"/>
  </g>
  <g transform="matrix(.35278 0 0 -.35278 70.743 51.747)">
   <path d="m0 0c-0.439 0.688-1.959 0.208-2.555 0.701 0.239-0.893 1.795-1.403 2.555-0.701" fill="#fff" fill-rule="evenodd"/>
  </g>
  <g transform="matrix(.35278 0 0 -.35278 32.285 51.262)">
   <path d="M 0,0 C 0.979,0.266 0.944,-0.585 1.923,-0.351 1.979,0.796 0,1.867 0,0" fill="#fff" fill-rule="evenodd"/>
  </g>
  <g transform="matrix(.35278 0 0 -.35278 27.887 40.139)">
   <path d="M 0,0 C 0.044,-0.736 1.361,-0.133 1.922,-0.321 1.914,0.621 0.413,0.471 0,0" fill="#fff" fill-rule="evenodd"/>
  </g>
  <g transform="matrix(.35278 0 0 -.35278 43.563 36.869)">
   <path d="m0 0c0.111-0.453 0.56-0.538 0.642-1.024 0.794-0.049 0.986 0.533 1.597 0.671-0.076 0.622-0.552 0.791-1.279 0.706-0.057-0.308 0.126-0.339 0.318-0.353-0.282-0.94-0.716 1.035-1.278 0" fill="#fff" fill-rule="evenodd"/>
  </g>
  <g transform="matrix(.35278 0 0 -.35278 46.608 36.633)">
   <path d="M 0,0 C 0.801,-0.274 1.716,-0.447 1.599,1.054 0.687,1.119 -0.142,1.097 0,0" fill="#fff" fill-rule="evenodd"/>
  </g>
  <g transform="matrix(.35278 0 0 -.35278 64.314 30.828)">
   <path d="m0 0c-0.704 0.849-2.808 0.301-2.556-1.025 1.442-0.267 1.598 0.81 2.556 1.025" fill="#fff" fill-rule="evenodd"/>
  </g>
  <g transform="matrix(.35278 0 0 -.35278 59.804 29.376)">
   <path d="m0 0c-0.25-1.322 1.532-1.322 1.28 0-0.636 0.569-0.409-0.025-1.28 0" fill="#fff" fill-rule="evenodd"/>
  </g>
  <g transform="matrix(.35278 0 0 -.35278 48.413 29.013)">
   <path d="m0 0c-1.073 0.17-1.889-0.707-1.276-1.373 0.714 0.168 1.139 0.624 1.276 1.373" fill="#fff" fill-rule="evenodd"/>
  </g>
  <g transform="matrix(.35278 0 0 -.35278 62.172 37.478)">
   <path d="M 0,0 C 0.546,-0.993 1.604,0.312 1.918,0.703 1.662,1.375 0.604,0.066 0,0" fill="#fff" fill-rule="evenodd"/>
  </g>
  <g transform="matrix(.35278 0 0 -.35278 64.777 19.321)">
   <path d="M 0,0 C 1.149,0.483 2.932,0.27 3.199,1.726 2.598,1.846 -0.239,1.866 0,0" fill="#fff" fill-rule="evenodd"/>
  </g>
  <g transform="matrix(.35278 0 0 -.35278 53.162 24.888)">
   <path d="m0 0c-0.218-1.248 0.505-1.506 1.597-1.376-0.41 0.614-0.662 1.353-1.597 1.376" fill="#fff" fill-rule="evenodd"/>
  </g>
  <g transform="matrix(.35278 0 0 -.35278 46.395 29.362)">
   <path d="m0 0c-1.277 0.345-0.965-1.02-2.239-0.672 0.097-1.09 2.206-0.348 2.239 0.672" fill="#fff" fill-rule="evenodd"/>
  </g>
  <g transform="matrix(.35278 0 0 -.35278 63.424 30.084)">
   <path d="m0 0c0.909 0.295 0.829-0.486 1.598-0.353 0.051 0.857-0.5 1.056-0.637 1.727-0.247-0.535-1.017-0.511-0.961-1.374" fill="#fff" fill-rule="evenodd"/>
  </g>
  <g transform="matrix(.35278 0 0 -.35278 72.899 43.271)">
   <path d="M 0,0 C -0.151,-1.061 0.276,-1.518 1.278,-1.374 1.424,-0.278 1.001,0.183 0,0" fill="#fff" fill-rule="evenodd"/>
  </g>
  <g transform="matrix(.35278 0 0 -.35278 52.822 50.765)">
   <path d="m0 0c0.56 0.323 1.72-0.013 1.604 1.021h-1.279v1.026h-0.962c-0.15-1.07 0.457-1.319 0.637-2.047" fill="#fff" fill-rule="evenodd"/>
  </g>
  <g transform="matrix(.35278 0 0 -.35278 57.785 77.862)">
   <path d="m0 0c0 0.703-0.869 0.477-0.638 1.408-1.344 0.113-0.456-1.963 0.638-1.408" fill="#fff" fill-rule="evenodd"/>
  </g>
  <g transform="matrix(.35278 0 0 -.35278 47.298 25.971)">
   <path d="M 0,0 C 0.608,-1.075 1.386,0.535 2.236,0.324 2.937,1.057 0.424,0.248 0,0" fill="#fff" fill-rule="evenodd"/>
  </g>
  <g transform="matrix(.35278 0 0 -.35278 -65.942 175.76)">
   <g clip-path="url(#clipPath11168)" opacity=".5">
    <g transform="translate(422.62 234.82)">
     <path d="m0 0c0-4.231-30.311-7.662-67.7-7.662-37.39 0-67.7 3.431-67.7 7.662 0 4.232 30.31 7.663 67.7 7.663 37.389 0 67.7-3.431 67.7-7.663" fill="#357908"/>
    </g>
   </g>
  </g>
  <g transform="matrix(.35278 0 0 -.35278 82.625 41.597)">
   <path d="m0 0c5.538-0.255 11.255-4.365 15.738-7.325 2.699-1.782 5.201 2.55 2.524 4.317-5.319 3.512-11.704 7.706-18.262 8.008-3.225 0.148-3.21-4.852 0-5" fill="#357908"/>
  </g>
  <g transform="matrix(.35278 0 0 -.35278 35.587 39.982)">
   <path d="m0 0c-9.047 3.772-20.311 1.805-28.926-2.252-2.916-1.373-0.376-5.684 2.523-4.318 7.507 3.535 17.252 5.009 25.074 1.748 2.975-1.24 4.26 3.599 1.329 4.822" fill="#357908"/>
  </g>
  <g transform="matrix(.35278 0 0 -.35278 46.018 79.191)">
   <path d="m0 0c-8.347-8.96-7.772-20.8-7.732-32.268 0.011-3.223 5.011-3.224 5 0-0.035 9.93-1.023 20.907 6.267 28.733 2.195 2.355-1.333 5.899-3.535 3.535" fill="#357908"/>
  </g>
  <g transform="matrix(.35278 0 0 -.35278 44.172 90.751)">
   <path d="m0 0h-12.5c-3.224 0-3.224-5 0-5h12.5c3.224 0 3.224 5 0 5" fill="#357908"/>
  </g>
  <g transform="matrix(.35278 0 0 -.35278 70.378 80.438)">
   <path d="m0 0c7.29-7.826 6.302-18.803 6.268-28.732-0.012-3.225 4.988-3.224 5 0 0.04 11.467 0.614 23.307-7.733 32.267-2.202 2.364-5.73-1.18-3.535-3.535" fill="#357908"/>
  </g>
  <g transform="matrix(.35278 0 0 -.35278 73.471 92.515)">
   <path d="m0 0h12.5c3.224 0 3.224 5 0 5h-12.5c-3.224 0-3.224-5 0-5" fill="#357908"/>
  </g>
  <g transform="matrix(.35278 0 0 -.35278 85.646 46.008)">
   <path d="m0 0-30.009 82.449c-6.905 18.968-24.937 31.595-45.123 31.595-20.187 0-38.22-12.627-45.124-31.595l-30.009-82.449c-18.98-52.149 19.639-107.3 75.133-107.3s94.111 55.151 75.132 107.3" fill="#90bd00"/>
  </g>
  <g transform="matrix(.35278 0 0 -.35278 59.141 9.1008)">
   <path d="m0 0c16.163 0 30.74-10.205 36.269-25.394l30.008-82.448c7.98-21.927 4.881-45.464-8.502-64.577-13.383-19.116-34.442-30.077-57.775-30.077-23.335 0-44.392 10.961-57.777 30.077-13.383 19.113-16.481 42.65-8.5 64.577l30.008 82.448c5.53 15.189 20.104 25.394 36.269 25.394" fill="#dcea21"/>
  </g>
  <g transform="matrix(.35278 0 0 -.35278 71.056 55.621)">
   <path d="m0 0c0-18.654-15.12-33.775-33.774-33.775-18.652 0-33.773 15.121-33.773 33.775 0 18.652 15.121 33.772 33.773 33.772 18.654 0 33.774-15.12 33.774-33.772" fill="#9b6a0b"/>
  </g>
  <g transform="matrix(.35278 0 0 -.35278 51.957 31.721)">
   <path d="m0 0c0-3.717-3.013-6.731-6.731-6.731s-6.731 3.014-6.731 6.731c0 3.718 3.013 6.731 6.731 6.731s6.731-3.013 6.731-6.731" fill="#58710b"/>
  </g>
  <g transform="matrix(.35278 0 0 -.35278 71.073 31.721)">
   <path d="m0 0c0-3.717-3.014-6.731-6.731-6.731-3.718 0-6.732 3.014-6.732 6.731 0 3.718 3.014 6.731 6.732 6.731 3.717 0 6.731-3.013 6.731-6.731" fill="#58710b"/>
  </g>
  <g transform="matrix(.35278 0 0 -.35278 59.141 39.908)">
   <path d="m0 0c-9.214 0-16.711 7.496-16.711 16.709v3.135c0 1.859 1.507 3.365 3.366 3.365h26.691c1.858 0 3.365-1.506 3.365-3.365v-3.135c0-9.213-7.496-16.709-16.711-16.709" fill="#58710b"/>
  </g>
  <g transform="matrix(.35278 0 0 -.35278 59.141 36.155)">
   <path d="m0 0c-3.465 0-6.534-1.664-8.477-4.23 2.306-1.901 5.261-3.045 8.477-3.045s6.171 1.144 8.477 3.045c-1.943 2.566-5.011 4.23-8.477 4.23" fill="#ff5571"/>
  </g>
  <g transform="matrix(.35278 0 0 -.35278 -65.942 175.76)">
   <g clip-path="url(#clipPath11252)" opacity=".39999">
    <g transform="translate(334.79 339.75)">
     <path d="m0 0c-1.34 0-2.698 0.343-3.94 1.064-3.757 2.18-5.036 6.994-2.855 10.751 3.622 6.242 8.884 11.397 15.216 14.913 3.798 2.108 8.587 0.737 10.695-3.062 2.108-3.798 0.737-8.586-3.061-10.694-3.851-2.137-7.048-5.268-9.245-9.053-1.459-2.515-4.098-3.919-6.81-3.919" fill="#fff"/>
    </g>
   </g>
  </g>
 </g>
</svg>
