<svg xmlns="http://www.w3.org/2000/svg" height="512" width="512"><path d="M254.509 1.176l1.821 1.822z" fill="#fa5"/><path d="M225.364 3.772c-40.588 5.525-78.574 18.685-112.933 41.265-25.808 16.958-47.225 38.712-65.298 63.609-71.673 98.728-58.117 241.67 27.565 327.353 33.44 33.438 75.784 56.003 121.522 67.234 27.068 6.647 57.857 8.946 85.611 5.627 39.473-4.722 77.387-16.904 111.113-38.148 26.638-16.782 49.567-38.099 68.347-63.338 75.383-101.31 62.59-250.482-30.096-336.816-31.841-29.662-70.904-50.206-112.933-60.948-29.095-7.437-63.05-9.9-92.898-5.838z" fill="#ff7618"/><path d="M285.474 2.998l1.822 1.821-1.822-1.821m12.751 1.821l1.821 1.822z" fill="#fff"/><path d="M329.19 12.106l1.822 1.821z" fill="#fa5"/><path d="M174.362 13.927l1.822 1.822z" fill="#ff8080"/><path d="M168.897 15.749l1.822 1.821-1.822-1.821m185.795 5.464l1.821 1.822z" fill="#fff"/><path d="M150.682 23.035l1.822 1.821z" fill="#ff8080"/><path d="M229.007 31.095c-34.672 4.72-69.228 15.845-98.361 35.709-28.094 19.153-52.715 43.454-70.214 72.808C.71 239.795 28.23 372.436 123.36 440.325c22.393 15.982 47.987 27.97 74.682 34.676 25.678 6.45 53.689 9.7 80.146 6.536 35.751-4.277 69.719-15.486 100.184-34.884 95.26-60.653 132.209-189.17 81.476-290.648-16.882-33.769-41.968-62.246-72.369-84.445-22.862-16.693-49.095-28.237-76.503-35.092-25.988-6.499-55.305-9.002-81.969-5.373z" fill="#2b0000"/><path d="M128.824 33.964l1.822 1.821z" fill="#fff"/><path d="M310.976 35.785l1.821 1.822z" fill="#ff8080"/><path d="M119.717 39.428l1.821 1.822z" fill="#fa5"/><path d="M170.719 44.893l1.821 1.821z" fill="#ff8080"/><path d="M103.323 50.357l1.821 1.822z" fill="#fff"/><path d="M157.968 50.357l1.822 1.822z" fill="#fa5"/><path d="M154.325 52.179L156.147 54z" fill="#ff8080"/><path d="M150.682 54l1.822 1.822L150.682 54m224.047 9.108l1.821 1.821-1.821-1.821M83.286 66.75l1.822 1.821z" fill="#fa5"/><path d="M121.538 72.216l1.822 1.821-1.822-1.821m-7.286 5.464l1.822 1.822-1.822-1.822m289.62 7.286l1.822 1.822-1.821-1.822m43.716 3.643l1.822 1.822z" fill="#fff"/><path d="M127.003 207.008c-41.25 14.023-41.276 84.33 0 98.361-13.782 32.45 3.519 71.582 38.251 81.076 7.072 1.933 14.529 3.098 21.859 2.402 5.293-.504 12.442-3.65 17.532-1.149 6.55 3.22 10.967 12.02 17.078 16.417 16.926 12.179 41.4 14.523 60.108 4.83 9.63-4.99 17.257-19.272 27.394-21.531 6.264-1.394 13.538 1.772 19.966 1.647 18.036-.354 37.055-8.84 47.743-23.589 7.5-10.346 12.308-23.59 12.314-36.423.002-6.585-3.742-15.315-1.191-21.549 2.983-7.293 12.118-12.338 16.92-18.524 8.532-10.988 10.366-24.767 9.754-38.252-.541-11.893-5.304-23.72-13.279-32.618-3.973-4.434-11.03-7.628-13.395-13.255-2.06-4.904.442-11.042.932-16.059.72-7.344-.126-14.747-2.036-21.858-10.082-37.501-47.28-48.911-81.442-40.073-14.308-27.583-51.024-38.665-78.325-23.011-8.81 5.05-14.574 16.914-23.844 20.339-5.033 1.86-11.085-.457-16.23-.807-7.947-.541-16.062.351-23.68 2.701-33.826 10.441-49.943 49.108-36.43 80.925z" fill="#ffe0cb"/><path d="M86.93 103.181l1.82 1.822z" fill="#fff"/><path d="M48.678 105.003l1.821 1.821z" fill="#fa5"/><path d="M214.435 132.325c19.525 14.713 41.71 29.513 65.575 13.123 4.87-3.346 15.455-9.787 14.106-16.83-1.48-7.715-11.354-13.746-17.75-16.95-22.695-11.367-50.4-1.565-61.93 20.657z" fill="#2b0000"/><path d="M427.552 108.646l1.822 1.821z" fill="#fa5"/><path d="M76 115.932l1.822 1.821z" fill="#fff"/><path d="M469.447 117.753l1.822 1.822z" fill="#fa5"/><path d="M70.536 123.218l1.821 1.821z" fill="#fff"/><path d="M199.863 143.255c-24.213-4.496-49.458 1.005-57.88 27.322-2.279 7.119-4.63 20.086 1.155 26.225 5.233 5.55 17.67 2.697 23.938.69 24.017-7.687 32.723-31.155 32.787-54.237m169.401 56.466c4.661-25.105-4.698-55.656-34.609-58.119-5.89-.484-16.164-1.648-20.732 3.004-4.652 4.738-1.328 16.742.311 22.328 7.53 25.664 31.287 32.787 55.03 32.787z" fill="#2b0000"/><path d="M484.02 143.255l1.82 1.821z" fill="#fff"/><path d="M453.054 145.076l1.821 1.822z" fill="#ff8080"/><path d="M208.97 150.54c-2.64 33.196-26.202 58.196-60.11 58.29 14.314 21.728 27.216 42.453 16.223 69.217-3.789 9.224-11.211 16.042-14.4 25.5 33.277.092 54.202 24.837 58.288 56.468 8.98-4.108 16.158-11.035 25.501-14.705 26.266-10.321 46.518 2.005 67.396 16.526 1.403-32.59 25.235-58.197 58.288-58.288-3.553-9.24-10.639-16.336-14.4-25.501-11.017-26.84 1.867-47.493 16.222-69.218-33.325-.091-58.651-24.836-60.11-58.288-7.273 4.969-13.75 11.067-21.858 14.747-27.308 12.388-48.682.524-71.04-14.747z" fill="#2b0000"/><path d="M19.533 156.005l1.822 1.822-1.822-1.822m30.966 0l1.822 1.822z" fill="#fa5"/><path d="M491.305 159.648l1.822 1.822-1.822-1.822M15.89 165.113l1.822 1.821-1.822-1.821m453.557 16.393l1.822 1.822z" fill="#ff8080"/><path d="M471.269 186.97l1.821 1.822-1.821-1.821m-435.342 7.286l1.821 1.821-1.821-1.821m-3.643 14.572l1.821 1.822z" fill="#fff"/><path d="M132.467 296.262c5.732-8.392 13.086-15.835 16.733-25.501 5.746-15.24 1.787-31.167-8.153-43.708-3.957-4.992-8.787-11.608-15.866-8.43-30.692 13.78-23.523 69.56 7.286 77.639m245.905-80.147c-4.98 7.29-11.332 13.82-15.166 21.858-10.897 22.835 3.153 40.11 15.166 58.289 35.295-8.397 36.641-72.753 0-80.147z" fill="#2b0000"/><path d="M1.318 225.223l1.822 1.821z" fill="#fa5"/><path d="M1.318 285.333l1.822 1.821-1.822-1.821m1.822 12.75l1.821 1.822-1.821-1.822m502.738 1.822l1.821 1.821z" fill="#fff"/><path d="M143.396 310.834c-8.113 25.596 2.864 56.046 32.788 59.773 5.792.721 14.331 1.268 19.457-2.064 5.333-3.466 4.058-10.486 3.1-15.814-2.648-14.747-10.88-27.844-24.379-34.928-9.958-5.226-20.357-4.44-30.966-6.967m224.046 0c-9.858 1.83-20 1.58-29.144 6.153-14.164 7.084-23.188 20.21-25.494 35.742-.772 5.195-2.869 12.337 2.401 15.814 5.456 3.601 15.146 2.878 21.272 1.802 27.37-4.806 41.354-34.893 30.965-59.511z" fill="#2b0000"/><path d="M474.912 310.834l1.821 1.821z" fill="#fa5"/><path d="M10.426 329.049l1.821 1.821z" fill="#ff8080"/><path d="M14.069 339.978l1.821 1.822-1.821-1.822m7.286 18.215l1.821 1.822z" fill="#fa5"/><path d="M254.509 359.496c-12.126.25-22.012 5.03-30.924 13.038-2.709 2.434-6.756 5.432-6.698 9.503.217 15.17 27.603 23.647 39.443 23.417 11.614-.224 37.418-8.763 37.622-23.51.067-4.82-5.199-8.405-8.487-11.119-8.987-7.415-19.184-11.573-30.956-11.33z" fill="#2b0000"/><path d="M454.875 361.836l1.822 1.822z" fill="#fff"/><path d="M59.607 370.944l1.821 1.821z" fill="#fa5"/><path d="M32.284 380.051l1.821 1.822z" fill="#fff"/><path d="M443.946 380.051l1.822 1.822-1.822-1.822m30.966 3.643l1.821 1.822-1.821-1.822M37.748 389.16l1.822 1.821z" fill="#ff8080"/><path d="M45.035 400.088l1.821 1.822-1.821-1.822m378.874 5.465l1.822 1.821z" fill="#fa5"/><path d="M90.572 411.017l1.822 1.822-1.822-1.822m364.303 1.822l1.822 1.821z" fill="#fff"/><path d="M55.964 414.66l1.821 1.822z" fill="#ff8080"/><path d="M97.858 418.303l1.822 1.822-1.822-1.822m309.658 3.643l1.821 1.822z" fill="#fff"/><path d="M68.714 429.232l1.822 1.822z" fill="#ff8080"/><path d="M70.536 431.054l1.821 1.821z" fill="#fa5"/><path d="M394.765 432.875l1.822 1.822-1.822-1.822M77.822 438.34l1.821 1.821z" fill="#ff8080"/><path d="M387.48 438.34l1.82 1.821z" fill="#fa5"/><path d="M79.643 440.161l1.822 1.822z" fill="#fff"/><path d="M425.73 443.804l1.822 1.822z" fill="#ff8080"/><path d="M132.467 445.626l1.822 1.821-1.822-1.821m238.619 3.643l1.821 1.821-1.821-1.821m-204.01 14.572l1.821 1.822z" fill="#fff"/><path d="M400.23 463.841l1.821 1.822-1.821-1.822m-224.046 3.643l1.821 1.822z" fill="#fa5"/><path d="M181.648 469.306l1.822 1.821z" fill="#fff"/><path d="M199.863 474.77l1.822 1.822z" fill="#fa5"/><path d="M230.829 480.235l1.821 1.821z" fill="#ff8080"/><path d="M139.753 482.056l1.822 1.822z" fill="#fff"/><path d="M143.396 483.878l1.822 1.821z" fill="#ff8080"/><path d="M361.978 485.7l1.821 1.82-1.821-1.82m-12.75 5.464l1.82 1.821z" fill="#fff"/></svg>